Coordinates
version=1
nRows=12
nColumns=34
inDegrees=yes

Units are S.I. units (second, meters, Newtons, ...)
If the header above contains a line with 'inDegrees', this indicates whether rotational values are in degrees (yes) or radians (no).

endheader
time	pelvis_tilt	pelvis_list	pelvis_rotation	pelvis_tx	pelvis_ty	pelvis_tz	hip_flexion_r	hip_adduction_r	hip_rotation_r	knee_angle_r	ankle_angle_r	subtalar_angle_r	mtp_angle_r	hip_flexion_l	hip_adduction_l	hip_rotation_l	knee_angle_l	ankle_angle_l	subtalar_angle_l	mtp_angle_l	lumbar_extension	lumbar_bending	lumbar_rotation	arm_flex_r	arm_add_r	arm_rot_r	elbow_flex_r	pro_sup_r	arm_flex_l	arm_add_l	arm_rot_l	elbow_flex_l	pro_sup_l
      0.00000000	     -1.26750807	      2.34855113	      3.67088123	      0.60968281	      0.88262195	     -0.00404404	      0.05992014	     -6.91923747	     -5.33209016	      6.15998626	     12.29005433	      0.43472956	      0.00000000	      1.76796329	     -2.35037547	    -12.37763340	      9.29496477	     16.17392273	      9.10317024	      0.00000000	     -2.88084844	     -1.70455509	      0.52850382	     57.98834146	     14.24462741	     59.52149129	    115.72323266	    110.61729329	     40.56069543	      4.18102533	     37.75675361	    110.70644530	     96.94995438
      0.01666670	     -4.22875318	      1.11847447	      2.12971998	      0.60749480	      0.87782041	     -0.00617681	      4.18817848	     -5.94054638	     -3.86317139	      7.31280535	     14.23678615	      1.51878041	      0.00000000	      5.31802909	     -3.11797213	    -13.18744128	      9.37581541	     16.60700914	      8.36030464	      0.00000000	      0.76567182	     -0.63444303	      0.99162950	     60.31862327	     13.92225068	     60.07290529	    118.16522339	    109.75122772	     41.83700011	      5.46642381	     36.43930000	    110.99501160	     97.35635948
      0.03333330	     -4.97542147	      1.34982643	      1.46431384	      0.60997030	      0.87977445	     -0.00922108	      4.93978755	     -6.34215811	     -3.75918904	      6.96246770	     14.48777797	      1.42066977	      0.00000000	      5.95046677	     -2.86904497	    -14.37640557	      8.91441920	     16.43884762	      7.99909576	      0.00000000	      1.54693060	     -1.22163953	      0.95409146	     60.34352233	     13.51453295	     60.85320234	    119.65562195	    109.38294570	     42.59313484	      5.43126425	     36.16480352	    109.90840438	     97.44781665
      0.05000000	     -5.31026885	      1.65212938	      0.56927942	      0.60817679	      0.88271165	     -0.01138519	      5.28262063	     -6.78400733	     -3.62647744	      6.25542973	     14.10939352	      1.68799432	      0.00000000	      5.65981180	     -2.34756436	    -15.31270585	      7.80329061	     16.04392945	      7.64917845	      0.00000000	      1.84897640	     -1.70174893	      1.35985640	     60.18586924	     13.33041450	     62.57561080	    120.13589966	    109.11289458	     42.96009513	      5.58992202	     36.93153490	    108.89660243	     97.44905719
      0.06666670	     -5.54269843	      1.72847720	      0.22511591	      0.60838446	      0.88258949	     -0.01412003	      5.44148540	     -6.93373184	     -3.47774516	      5.71357644	     13.95841754	      1.68949942	      0.00000000	      5.50683390	     -1.96040836	    -15.58823285	      7.03681773	     16.01962158	      7.36831390	      0.00000000	      1.99300700	     -1.72421979	      1.50064588	     60.06881185	     13.03250238	     64.36192192	    120.24066411	    108.79445554	     43.04062842	      5.61088908	     37.56378799	    107.79339452	     97.23797291
      0.08333330	     -5.65720841	      1.77886604	     -0.19957181	      0.60827922	      0.88175972	     -0.01542277	      5.69637520	     -7.01480319	     -3.16164521	      5.50211605	     13.91062523	      1.59104580	      0.00000000	      5.27722636	     -1.62516657	    -15.74004640	      6.36362932	     15.96594631	      7.04440171	      0.00000000	      2.13970141	     -1.69717924	      1.73588629	     59.82810516	     12.68316333	     65.44839298	    120.09044192	    108.32812009	     42.81942755	      5.54777113	     37.81968511	    107.28265338	     96.76572594
      0.10000000	     -5.70298404	      1.72029684	     -0.28730316	      0.60824314	      0.88165130	     -0.01678443	      5.80760670	     -7.00645833	     -3.18420637	      5.52101304	     13.90154054	      1.55741104	      0.00000000	      5.24476841	     -1.48759334	    -15.73396180	      6.17892310	     16.01911632	      7.01901489	      0.00000000	      2.01167105	     -1.55972348	      1.67671777	     59.76420439	     12.51565222	     65.48921929	    120.07844427	    108.30513826	     42.71877403	      5.46393053	     37.81797227	    107.24086174	     96.73701561
      0.11666670	     -5.58702992	      1.56818570	     -0.38736025	      0.60845938	      0.88581200	     -0.01772216	      5.84498910	     -6.84896136	     -3.23450676	      5.98269682	     13.79155292	      1.42410949	      0.00000000	      4.79880053	     -1.42781739	    -15.66533826	      5.61750212	     15.88789471	      6.92913266	      0.00000000	      2.07885441	     -1.37344879	      1.77567555	     59.34838284	     11.85141096	     65.86215504	    119.96913629	    108.21524674	     41.75835116	      5.06415360	     37.83534107	    107.12835844	     96.60027019
      0.13333330	     -5.61506092	      1.35540219	     -0.34244749	      0.60833283	      0.88512796	     -0.01867613	      5.81852441	     -6.58350726	     -3.15163210	      6.08359859	     13.95862180	      1.20007234	      0.00000000	      4.59961340	     -1.47669186	    -15.51054923	      5.17252281	     15.55859566	      6.87440074	      0.00000000	      2.20684568	     -1.13709218	      1.87044328	     59.12295627	     11.45049868	     66.11435648	    119.75627461	    108.07941136	     41.29490658	      5.18966728	     37.70183974	    107.25031972	     96.39963693
      0.15000000	     -5.55884513	      1.20746058	     -0.49164693	      0.60739910	      0.88348937	     -0.01886255	      5.92048649	     -6.33889378	     -2.78829701	      6.56760957	     14.03391304	      0.42381638	      0.00000000	      4.45864495	     -1.54442659	    -15.15122740	      5.03189061	     15.01300058	      6.17779401	      0.00000000	      2.32284868	     -0.85724434	      2.15845129	     59.57933180	     11.46601599	     65.90451441	    119.41090698	    107.39696403	     40.67955951	      5.53956042	     36.81528617	    107.86743678	     95.48171804
      0.16666670	     -5.51476310	      1.05989106	     -0.54661308	      0.60443012	      0.88445292	     -0.01983110	      6.06416558	     -6.12099804	     -2.78052153	      7.06827503	     13.88823215	      0.34060891	      0.00000000	      4.37981168	     -1.60309291	    -15.03096373	      4.92589116	     14.98115549	      6.14497233	      0.00000000	      2.24390612	     -0.76602486	      1.89059280	     59.64561716	     11.50460321	     65.86473295	    119.37912247	    107.29088394	     40.69790221	      5.52174559	     36.85013411	    107.82825347	     95.34887695
      0.18333330	     -5.50614771	      1.02748319	     -0.51728307	      0.60622960	      0.88719479	     -0.02006455	      5.93544162	     -5.98497587	     -2.78155542	      7.26983959	     13.84557951	      0.31903420	      0.00000000	      4.38254284	     -1.61634449	    -14.99247425	      4.86730030	     14.94125183	      6.14228380	      0.00000000	      2.34812553	     -0.81687332	      1.94795161	     59.71366775	     11.61381450	     65.84588808	    119.39713558	    107.26398399	     40.66511355	      5.51046582	     36.86960904	    107.85154391	     95.31701725
